<?xml version="1.0" encoding="UTF-8"?>
<!-- Generator: Adobe Illustrator 16.0.0, SVG Export Plug-In . SVG Version: 6.00 Build 0)  -->
<svg xmlns="http://www.w3.org/2000/svg" xmlns:xlink="http://www.w3.org/1999/xlink" version="1.1" id="Capa_1" x="0px" y="0px" width="168.249px" height="38.264px" viewBox="0 0 168.249 38.264" xml:space="preserve">
<g>
	<g>
		<path d="M36.898,6.425c-3.639,0-6.082,1.891-7.533,4.149c-1.879-3.447-4.749-4.149-6.85-4.149c-4.458,0-5.996,2.31-6.56,3.279    H15.87v-2.71H9.225v24.192h7.106V18.119c0-1.389,0-5.152,4.031-5.152c3.553,0,3.553,3.613,3.553,4.869v13.351h7.106V17.785    c0-1.305,0-4.818,3.946-4.818c3.639,0,3.639,3.279,3.639,5.152v13.067h7.106V17.785c0-5.153-0.342-6.709-2.562-9.018    C41.22,6.793,38.573,6.425,36.898,6.425z"></path>
		<path d="M120.279,21.65c-0.77,1.422-2.188,3.111-5.143,3.111c-3.382,0-5.654-2.51-5.654-5.906c0-3.362,2.272-6.09,5.654-5.906    c2.955,0,4.373,1.674,5.143,3.279h7.191c-1.195-5.705-6.304-9.77-12.59-9.77c-7.107,0-12.556,5.537-12.556,12.381    c0,6.926,5.518,12.464,12.727,12.464c6.423,0,11.173-4.317,12.47-9.604h-7.242V21.65z"></path>
		<polygon points="0,11.176 0,12.297 0,31.203 7.106,31.203 7.106,12.297 7.106,11.176 7.106,7.01 0,7.01   "></polygon>
		<path d="M61.925,6.425c-3.423,0-5.701,1.409-7.141,3.052V6.994h-7.072v31.27h7.089v-9.854c0.854,0.887,2.87,2.895,7.158,2.895    c6.765,0,11.564-5.487,11.564-12.214C73.523,13.686,70.346,6.425,61.925,6.425z M60.455,24.795c-3.724,0-5.944-2.978-5.944-5.906    c0-2.76,2.05-5.955,5.944-5.955s5.945,3.195,5.945,5.955C66.418,21.817,64.197,24.795,60.455,24.795z"></path>
		<path d="M93.783,9.704h-0.085c-0.854-1.422-3.04-3.279-6.936-3.279c-6.337,0-11.94,4.785-11.94,12.415    c0,6.675,4.407,12.464,11.94,12.464c2.784,0,5.739-1.054,6.936-3.313h0.085v3.196h7.107V6.994h-7.107V9.704z M87.822,24.778    c-4.288,0.017-5.911-3.663-5.911-5.855c0-2.644,1.794-6.007,5.859-6.007c4.032,0,5.996,3.112,5.996,5.906    C93.767,21.081,92.264,24.778,87.822,24.778z"></path>
		<polygon points="128.062,6.425 128.062,12.916 132.658,12.916 132.658,30.601 139.746,30.601 139.746,12.916 144.376,12.916     144.376,6.425   "></polygon>
	</g>
	<path fill="#F34727" d="M155.131,6.425h-6.561v6.425h6.561V6.425z"></path>
	<path fill="#9C6840" d="M161.689,0h-6.559v6.425h6.559V0z"></path>
	<path fill="#E8C42F" d="M161.689,12.849h-6.559v6.425h6.559V12.849z"></path>
	<path fill="#803ED3" d="M168.249,6.424h-6.56v6.425h6.56V6.424z"></path>
</g>
</svg>
